<?xml version="1.0" encoding="UTF-8" standalone="no"?>
<svg
   version="1.1"
   id="Layer_1"
   x="0px"
   y="0px"
   width="200"
   viewBox="0 0 200 200"
   enable-background="new 0 0 231 205"
   xml:space="preserve"
   sodipodi:docname="logo.svg"
   inkscape:version="1.3 (1:1.3+202307231459+0e150ed6c4)"
   height="200"
   xmlns:inkscape="http://www.inkscape.org/namespaces/inkscape"
   xmlns:sodipodi="http://sodipodi.sourceforge.net/DTD/sodipodi-0.dtd"
   xmlns="http://www.w3.org/2000/svg"
   xmlns:svg="http://www.w3.org/2000/svg"><defs
   id="defs142" /><sodipodi:namedview
   id="namedview142"
   pagecolor="#ffffff"
   bordercolor="#666666"
   borderopacity="1.0"
   inkscape:showpageshadow="2"
   inkscape:pageopacity="0.0"
   inkscape:pagecheckerboard="0"
   inkscape:deskcolor="#d1d1d1"
   inkscape:zoom="0.91406486"
   inkscape:cx="15.863207"
   inkscape:cy="138.93981"
   inkscape:window-width="1366"
   inkscape:window-height="703"
   inkscape:window-x="0"
   inkscape:window-y="29"
   inkscape:window-maximized="1"
   inkscape:current-layer="Layer_1" />&#10;&#10;&#10;&#10;&#10;&#10;&#10;&#10;&#10;&#10;&#10;&#10;&#10;&#10;&#10;&#10;&#10;&#10;&#10;&#10;&#10;&#10;&#10;&#10;&#10;&#10;&#10;&#10;&#10;&#10;&#10;&#10;&#10;&#10;&#10;&#10;&#10;&#10;&#10;&#10;&#10;&#10;&#10;<path
   fill="#d3d3d3"
   opacity="1"
   stroke="none"
   d="m 196.06934,188.618 c -0.3891,-0.31619 -0.20091,-0.57652 0.28229,-0.89049 0.21771,0.22382 0.21771,0.55716 -0.28229,0.89049 z"
   id="path43" />&#10;&#10;&#10;&#10;&#10;&#10;&#10;&#10;&#10;&#10;&#10;&#10;<path
   fill="#383838"
   opacity="1"
   stroke="none"
   d="m 169.27314,143.99694 c -0.0906,-0.42566 0.23759,-0.77504 0.29791,-1.00699 0.50538,-0.24802 0.95045,-0.2641 1.70612,-0.40776 6.56735,-0.1276 12.82414,-0.1276 19.32917,-0.1276 0,3.9235 0,7.17501 0,10.79071 -1.66282,0 -3.21042,0 -4.95198,0 -0.2473,-1.49492 -0.48312,-2.9203 -0.7595,-4.59098 -2.33687,0 -4.56681,0 -7.32929,0 0,2.83084 0,5.42501 -0.0329,8.8598 0.0588,2.97406 0.15055,5.10751 0.15566,7.67453 -0.0865,8.10048 1.0739,9.53453 7.29571,9.11593 0,-3.15695 0,-6.33665 0,-9.7985 -1.63724,0 -2.9386,0 -4.36642,-0.40142 -0.0894,-2.06337 -0.0522,-3.72531 -0.0151,-5.38726 3.01532,-0.007 6.03063,-0.0145 9.49806,-0.0221 0.51482,0.44927 0.57752,0.89894 0.79613,1.65387 0.15593,6.69171 0.15593,13.07819 0.15593,19.61086 -7.22529,0.87529 -13.41115,1.33737 -17.71666,-5.4155 -0.62677,-5.6218 -0.83546,-11.02982 -1.48985,-16.38333 -0.56372,-4.61179 -1.63535,-9.16147 -2.57298,-14.16429 z"
   id="path55" />&#10;&#10;&#10;&#10;&#10;&#10;&#10;&#10;&#10;&#10;&#10;&#10;<path
   fill="#383838"
   opacity="1"
   stroke="none"
   d="m 109.74675,142.97444 c 0.41874,-0.0873 0.83748,-0.17457 1.5484,-0.39619 1.02266,-0.0468 1.75312,0.0407 2.97837,0.52843 1.11767,3.69067 1.74057,6.98109 2.36345,10.2715 0.36227,1.15376 0.72453,2.30752 1.18498,3.83058 -0.0917,0.75656 -0.28166,1.1438 -0.54903,1.84563 -0.0774,0.31457 -0.43777,0.24168 -1.0122,0.36561 -0.82862,3.81468 -1.24877,7.50545 -1.24808,11.19615 2.4e-4,1.31418 1.02162,2.62816 1.57687,3.94223 1.06178,0.0717 2.12357,0.14344 3.94281,0.0951 1.16788,-1.76663 1.5783,-3.41324 1.98869,-5.05984 1.47852,0 2.95704,0 4.7304,0 0,3.47331 0,6.72758 0,10.86224 -4.93668,0 -9.8483,0 -15.22072,0.0823 -0.87326,-0.0172 -1.28572,-0.11666 -2.01698,-0.18601 -0.35228,-6.24011 -0.38575,-12.51033 -0.44318,-19.60297 -0.99284,-2.81362 -1.96172,-4.80485 -2.53012,-6.92651 1.13226,-1.29394 2.30688,-2.38867 2.50059,-3.63576 0.36626,-2.35792 0.1689,-4.80339 0.20575,-7.21248 z"
   id="path67" />&#10;&#10;&#10;<path
   fill="#2b2b2b"
   opacity="1"
   stroke="none"
   d="m 113.32146,32.953774 c 1.51765,-2.817695 3.1172,-5.27769 4.99913,-7.525215 0.2824,0.212471 0.22215,0.169701 0.22215,0.169701 -1.57641,4.860321 -0.0492,8.381153 4.53316,10.580799 0.95451,-2.736847 1.9027,-5.455536 3.60056,-8.38253 1.35746,-0.297451 1.96524,-0.386589 2.57301,-0.475727 0.97671,0.291458 1.95344,0.58292 3.09425,1.289406 0.13559,0.63644 0.1341,0.858032 0.15963,1.079803 -5.43732,0.364475 -4.97103,4.315235 -4.76465,8.458332 -0.0516,6.157257 4.44656,3.722889 7.15094,4.482983 0.95106,0.267315 1.81546,0.843101 2.82106,1.653839 -0.10498,0.789444 -0.31162,1.203091 -1.0416,1.728565 -1.04536,0.290398 -1.56737,0.468964 -2.08937,0.64753 -1.11612,0 -2.23224,0 -2.37744,0 -0.99648,7.303512 -1.93572,14.187446 -2.88074,21.472946 -1.98498,3.245819 -3.96419,6.090065 -5.9434,8.934311 -0.386,-0.204605 -0.77201,-0.40921 -1.15802,-0.613823 0.21425,-1.085716 0.42849,-2.171433 0.72172,-3.657341 -4.77907,0.443443 -8.7845,0.506645 -8.97644,7.188835 -0.12272,4.272513 -2.43147,8.482233 -4.08107,13.299703 -1.4324,2.44742 -2.54391,4.31523 -3.94259,6.355941 -1.90091,1.664848 -3.51465,3.156798 -5.12839,4.648748 -0.2621,-0.28908 -0.5242,-0.57816 -0.7863,-0.86723 0.32492,-1.55887 0.64984,-3.11776 1.08381,-5.199868 -7.12681,3.689458 -13.37937,6.926318 -20.010935,10.197588 -3.79732,1.61542 -7.40304,2.89458 -10.57896,4.8661 -2.91767,1.81122 -4.34665,4.77346 -4.01061,9.11498 1.57297,-1.76682 2.53858,-2.85141 2.96928,-3.33521 4.18429,2.87554 8.14398,5.5967 12.37601,8.55088 2.08715,0.81945 3.901935,1.40588 5.716725,1.99229 1.41457,0.71034 2.82914,1.42069 4.81562,2.39562 7.89295,3.72595 12.25718,9.20335 12.2994,18.00851 -0.0422,3.48399 -0.009,6.53542 0.0248,9.58684 -3.9593,10.98857 -12.78442,16.65266 -23.157285,21.11877 -10.44369,2.94689 -20.698841,4.15416 -31.560383,1.82387 -11.441536,-3.49504 -21.049019,-8.91064 -27.043258,-19.75867 -0.799817,-1.7088 -1.348305,-3.19703 -2.106781,-5.34543 -0.230534,-7.38038 -0.251076,-14.1006 -0.03718,-21.07647 1.459987,-3.06415 2.685535,-5.87264 4.190376,-8.86902 1.733055,-1.4819 3.186821,-2.77593 4.663418,-3.69708 0.09028,0.86367 0.15773,1.35452 0.106666,2.15979 -0.191101,0.75293 -0.263679,1.19142 -0.576065,1.79817 -0.321586,0.73903 -0.403381,1.3098 -0.727031,2.22839 -2.578293,11.78372 -0.165699,21.68506 9.109561,29.44187 -0.02377,0.0807 0.138184,0.12646 0.255913,0.44026 5.676178,2.63884 11.234627,4.96386 17.230965,7.40625 3.441101,-0.001 6.444298,-0.12 9.716599,-0.14649 0.77337,-0.11798 1.27765,-0.32812 2.15514,-0.52691 4.09926,-2.10611 7.8253,-4.22356 11.82834,-6.29645 0.50508,0.34045 0.73318,0.63637 0.90914,1.08249 -0.10867,0.36212 -0.10173,0.57193 -0.26742,0.90237 0.30933,0.47704 0.85475,0.83133 1.76184,1.10684 2.15274,-2.06893 3.943825,-4.05911 6.439815,-6.83253 0.18818,2.55127 0.26984,3.65834 0.37714,5.11314 4.4883,-4.51967 5.3982,-8.62979 2.13768,-11.98791 -2.29816,-2.36696 -5.589935,-3.76918 -8.647945,-5.78357 -0.7506,-0.26984 -1.29133,-0.35823 -2.09251,-0.70906 -2.93609,-1.08846 -5.87169,-1.46333 -8.23776,-2.82663 -6.60429,-3.80536 -12.972668,-8.02013 -19.111973,-12.38641 0.0026,-2.00036 -0.316902,-3.68755 -0.598602,-5.81014 0.02406,-2.4713 0.01025,-4.50723 0.167511,-6.84546 0.508163,-1.39995 0.84526,-2.49757 1.436012,-3.81033 3.417381,-3.61443 6.581116,-7.01374 10.031639,-10.48065 0.723824,-0.42983 1.160858,-0.79206 1.951823,-1.243468 4.25702,-2.137621 8.16011,-4.186061 12.05215,-6.228701 -2.05647,-2.49541 -4.16897,-5.0588 -5.76022,-6.98969 -3.53637,2.31997 -6.990297,4.58586 -10.444223,6.85175 -0.513878,-0.62976 -1.027755,-1.25952 -1.541626,-1.88928 0.73153,-0.30476 1.97625,-0.46479 2.109772,-0.9382 0.762222,-2.70272 2.636757,-6.81779 1.546623,-7.93985 -1.970512,-2.028218 -5.76696,-3.083356 -8.797806,-3.07684 -3.748573,0.0081 -3.517868,3.71296 -3.702156,6.52391 -0.05403,0.82407 0.0062,1.65562 -0.290695,2.47405 -0.705925,-0.0724 -1.10704,-0.13507 -1.544052,-0.58688 -0.363747,-3.70268 -0.691597,-7.016229 -1.148941,-11.638627 -2.34951,2.270859 -4.294121,4.150368 -6.238731,6.029877 -0.197914,-2.090371 0.102867,-4.3629 1.277214,-6.014183 1.286689,-1.809273 3.379692,-3.045128 5.418693,-4.553353 0.750557,-0.382141 1.203743,-0.741806 2.00013,-1.125747 0.783691,-0.149437 1.224174,-0.274605 1.880234,-0.116456 2.260795,1.587243 4.224357,3.047371 6.365974,4.166863 7.51754,3.929687 14.83095,2.432877 22.33447,-0.787163 0.60603,0.763199 0.89601,1.240364 0.92601,1.8732 -0.56144,0.670921 -0.86289,1.186187 -1.47204,1.899887 -2.30889,3.93985 -2.02919,7.234112 1.74309,10.134752 0.71456,0.42907 1.27516,0.59723 2.04469,0.96148 0.75704,0.21426 1.305155,0.23245 2.192435,0.37798 9.65262,-1.85184 15.92375,-9.969558 15.67795,-19.905738 0.032,-0.782418 -0.0544,-1.234086 -0.0713,-2.086586 -1.20528,-11.05233 -8.57851,-18.402558 -20.290375,-20.590626 -3.99901,-0.200031 -7.6906,-0.200031 -11.38219,-0.200031 -0.1209,0.422195 -0.24181,0.84439 -0.3627,1.266586 2.33806,1.313759 4.67612,2.627518 7.10204,4.415794 0.0453,0.793419 0.003,1.112313 -0.438,1.226738 -2.48828,-0.323356 -4.57829,-0.442238 -6.95437,-0.770592 -1.45343,-0.245643 -2.62079,-0.281814 -4.17482,-0.466964 -2.208633,-0.626976 -3.695205,-0.769219 -3.357482,1.954437 0.343673,2.771637 0.489349,5.567825 0.421051,8.514938 -0.734131,0.149849 -1.167603,0.138024 -1.665345,-0.212051 -2.561699,-2.861717 -5.059135,-5.385193 -7.833557,-8.195099 -7.381035,-2.945396 -14.417274,-1.371536 -16.728592,3.39344 -2.807945,5.788819 -3.89463,6.242081 -11.116493,4.430695 0.973145,-1.309906 1.877747,-2.52755 2.742203,-3.691155 -1.321064,-1.51754 -2.427937,-2.789032 -3.534809,-4.060524 5.000568,0.951477 8.739772,0.361489 11.369968,-4.26641 0.606155,-1.066552 2.852287,-1.311348 4.401375,-1.710724 4.397919,-1.133866 8.352508,-2.833145 10.128281,-6.049 -6.609528,-0.367638 -13.438576,-1.298016 -20.187714,-0.893906 -3.447582,0.206429 -6.751915,2.805298 -10.120995,4.322827 -0.326816,0.13562 -0.653637,0.271244 -1.113598,0.650741 -1.34917,-0.425117 -2.565204,-1.094108 -4.284248,-2.039829 -0.112984,0.06286 -1.171402,0.651653 -2.986244,1.661247 -0.163826,-2.221882 -0.284741,-3.861793 -0.503895,-5.892299 0.04594,-0.815136 0.190109,-1.239678 0.466309,-2.306 1.204708,-3.76191 2.277389,-6.882034 3.559169,-10.610371 1.357869,2.070683 2.150113,3.278813 2.94236,4.486946 1.072461,1.035912 2.144925,2.071823 3.855496,3.386582 10.165657,2.548649 14.957893,-1.055432 13.99498,-9.576809 0.651344,-0.213829 0.905357,-0.318436 1.487632,-0.216423 2.07483,0.606601 3.821412,1.00658 5.781678,1.608291 0.774154,0.165596 1.334617,0.129464 2.257934,0.223328 1.375634,0.0715 2.38842,0.013 3.710656,0.0946 1.153923,-0.127785 1.99839,-0.395668 3.208946,-0.629257 4.168373,-1.480751 7.970649,-2.995797 12.191551,-4.453766 3.746963,-0.771465 7.075293,-1.60001 10.750803,-2.413475 1.45634,-0.281765 2.56549,-0.578606 4.06828,-0.826172 2.11,-0.41338 3.82635,-0.876034 5.940805,-1.329247 1.16419,-0.183769 1.9303,-0.376979 2.80347,-0.12107 0.12684,0.756301 0.14661,1.063472 -0.13874,1.533184 -4.223025,3.322715 -8.140925,6.482883 -12.058825,9.643055 0.20148,0.546543 0.40296,1.093082 0.60443,1.639621 6.09623,-0.669117 12.192465,-1.338234 19.180115,-2.10519 -2.24022,2.264019 -4.12565,4.169468 -6.38433,6.245995 -0.0612,0.65969 0.25077,1.1483 0.84704,1.843887 3.12039,1.305214 5.95654,2.403454 8.91171,3.793732 0.991976,0.865566 1.8649,1.439086 2.92764,2.293808 2.37008,2.367538 4.55033,4.45388 6.78365,6.843551 0.6859,1.085015 1.31871,1.866684 2.02135,3.00885 0.58671,1.572869 1.2446,2.746071 1.59422,4.004891 1.07849,3.883178 3.53511,6.0503 7.56685,5.497871 4.39464,-0.602165 5.79843,-3.913711 5.91754,-7.898086 0.17508,-5.856484 -2.28841,-10.483288 -6.90402,-14.402329 -1.08067,-1.07135 -2.05922,-1.840225 -3.17188,-2.840755 -0.59544,-0.480454 -1.05676,-0.729256 -1.51806,-0.978054 -0.16672,-0.71167 -0.33344,-1.42334 -0.58205,-2.492711 z"
   id="path70" />&#10;&#10;&#10;&#10;&#10;&#10;<path
   fill="#343434"
   opacity="1"
   stroke="none"
   d="m 140.20865,142.47408 c 2.16126,-0.008 3.96085,0.20143 5.76393,0.23796 7.4256,0.15042 10.11242,2.05908 12.91356,9.52656 -0.0257,9.33019 -0.1941,18.31359 -0.50711,27.73298 -4.73732,-0.44013 -9.33003,-1.31624 -14.23617,-2.34195 -5.32434,-6.11641 -3.2937,-13.29946 -3.78135,-20.05591 -0.21582,-2.99039 -0.62792,-5.96664 -1.3726,-8.94805 -1.64711,-2.35557 -2.67648,-4.67063 1.21974,-6.15159 m 5.61896,15.99443 c -0.0313,3.47569 -0.27716,6.96603 -0.0409,10.42343 0.31109,4.55258 2.44296,6.0042 7.43092,5.41327 0,-5.55913 0,-11.14307 0.22259,-17.52084 -0.099,-6.965 -1.4436,-8.45266 -7.35894,-7.90775 0,2.88377 0,5.78861 -0.25365,9.59189 z"
   id="path76" />&#10;&#10;&#10;<path
   fill="#777777"
   opacity="1"
   stroke="none"
   d="m 17.94234,127.80895 c 0.736431,-4.94063 1.700912,-9.66892 2.739422,-14.78079 0.663219,-1.17662 1.252414,-1.96967 2.167076,-3.27961 1.866806,-3.70008 3.408146,-6.88329 4.949486,-10.066488 0.226658,-0.50731 0.453312,-1.0146 0.734115,-2.231121 0.05415,-2.92877 0.05415,-5.14832 0.05415,-7.36788 0.481674,-0.16787 0.963348,-0.33575 1.445015,-0.50363 1.255478,2.66695 2.510956,5.3339 3.710495,8.401971 -0.09161,1.47943 -0.127304,2.557738 -0.317825,3.939588 0.0261,1.07579 0.207039,1.84806 0.387985,2.62034 0.581886,-0.97479 1.163773,-1.94957 1.984161,-3.17578 1.386872,-0.40824 2.53524,-0.56505 3.674607,-0.31341 0.392997,5.46251 -2.037583,8.92124 -5.648903,12.2955 -4.703347,4.39463 -8.741181,9.50153 -13.359776,14.48188 -0.497368,0.59057 -0.700367,1.00116 -0.90337,1.41174 -0.462864,-0.40665 -0.925724,-0.81331 -1.616634,-1.43231 z"
   id="path79" />&#10;&#10;&#10;&#10;&#10;&#10;&#10;&#10;&#10;&#10;&#10;&#10;&#10;&#10;&#10;&#10;&#10;&#10;&#10;&#10;&#10;&#10;&#10;&#10;&#10;&#10;&#10;&#10;&#10;&#10;&#10;&#10;&#10;&#10;&#10;&#10;&#10;&#10;&#10;&#10;&#10;&#10;&#10;&#10;&#10;&#10;&#10;&#10;&#10;&#10;&#10;&#10;&#10;&#10;&#10;&#10;&#10;<path
   fill="#cacaca"
   opacity="1"
   stroke="none"
   d="m 80.551205,163.11055 c -0.29349,0.008 -0.83891,-0.34672 -1.14824,-0.82376 0.45618,0.0721 0.67624,0.26703 1.14824,0.82376 z"
   id="path136" />&#10;&#10;&#10;&#10;&#10;&#10;<path
   fill="#777777"
   opacity="1"
   stroke="none"
   d="m 39.081389,99.127592 c 0.009,-0.0179 -0.0089,0.0179 0,0 z"
   id="path142" />&#10;</svg>
